<svg xmlns="http://www.w3.org/2000/svg" viewBox="0 0 45 45"><defs><style>.cls-1{fill:#231815;}.cls-2{fill:#fff;}</style></defs><title>アセット 2</title><g id="レイヤー_2" data-name="レイヤー 2"><g id="レイヤー_1-2" data-name="レイヤー 1"><path class="cls-1" d="M42.5,0H2.5A2.5,2.5,0,0,0,0,2.5v40A2.5,2.5,0,0,0,2.5,45H24V27.6H18.19V20.79H24v-5c0-5.82,3.55-9,8.75-9A48.26,48.26,0,0,1,38,7.07v6H34.44c-2.82,0-3.37,1.35-3.37,3.32v4.33h6.74l-.87,6.82H31.07V45H42.5A2.5,2.5,0,0,0,45,42.5V2.5A2.5,2.5,0,0,0,42.5,0Z"/><path id="f" class="cls-2" d="M31.07,45V27.6h5.87l.87-6.81H31.07V16.45c0-2,.55-3.31,3.37-3.31H38V7.06a50.94,50.94,0,0,0-5.24-.27c-5.18,0-8.75,3.17-8.75,9v5H18.19v6.82H24V45Z"/></g></g></svg>