<svg xmlns="http://www.w3.org/2000/svg" viewBox="0 0 45 45"><defs><style>.cls-1{fill:#231815;}.cls-2{fill:#fff;}</style></defs><title>アセット 1</title><g id="レイヤー_2" data-name="レイヤー 2"><g id="レイヤー_1-2" data-name="レイヤー 1"><rect class="cls-1" width="45" height="45"/><path class="cls-2" d="M17.27,33.91c10.61,0,16.41-8.79,16.41-16.41,0-.25,0-.5,0-.74a11.83,11.83,0,0,0,2.87-3,11.43,11.43,0,0,1-3.31.91,5.84,5.84,0,0,0,2.54-3.19,11.68,11.68,0,0,1-3.66,1.4,5.77,5.77,0,0,0-9.83,5.26,16.36,16.36,0,0,1-11.89-6A5.69,5.69,0,0,0,9.61,15a5.77,5.77,0,0,0,2.56,4.8,5.79,5.79,0,0,1-2.61-.72v.07a5.77,5.77,0,0,0,4.63,5.66,5.92,5.92,0,0,1-1.52.2,6.59,6.59,0,0,1-1.09-.1,5.79,5.79,0,0,0,5.39,4A11.54,11.54,0,0,1,9.81,31.4a12.48,12.48,0,0,1-1.38-.08,16.33,16.33,0,0,0,8.84,2.59M39.35,45H5.62A5.63,5.63,0,0,1,0,39.35V5.62A5.62,5.62,0,0,1,5.62,0H39.35A5.63,5.63,0,0,1,45,5.62V39.35A5.63,5.63,0,0,1,39.35,45Z"/></g></g></svg>